<?xml version="1.0" encoding="UTF-8" standalone="no"?>
<!DOCTYPE svg PUBLIC "-//W3C//DTD SVG 1.1//EN" "http://www.w3.org/Graphics/SVG/1.1/DTD/svg11.dtd">
<svg width="100%" height="100%" viewBox="0 0 1000 1000" version="1.1" xmlns="http://www.w3.org/2000/svg" xmlns:xlink="http://www.w3.org/1999/xlink" xml:space="preserve" xmlns:serif="http://www.serif.com/" style="fill-rule:evenodd;clip-rule:evenodd;stroke-linejoin:round;stroke-miterlimit:2;">
    <g transform="matrix(1,0,0,1,-2347,-2000)">
        <g id="bottom" transform="matrix(1,0,0,1,-2902.38,2000)">
            <rect x="5250" y="0" width="1000" height="1000" style="fill:rgb(230,230,230);"/>
            <clipPath id="_clip1">
                <rect x="5250" y="0" width="1000" height="1000"/>
            </clipPath>
            <g clip-path="url(#_clip1)">
                <g transform="matrix(0.931602,0,0,0.888282,7095.72,-738.357)">
                    <rect x="-1982.31" y="831.219" width="1075.99" height="1125.77" style="fill:none;"/>
                    <clipPath id="_clip2">
                        <rect x="-1982.31" y="831.219" width="1075.99" height="1125.77"/>
                    </clipPath>
                    <g clip-path="url(#_clip2)">
                        <g transform="matrix(0.0572117,0,0,0.0598587,-1864.87,826.298)">
                            <circle cx="-1197.82" cy="937.08" r="17.097" style="fill:rgb(4,128,252);"/>
                        </g>
                        <g transform="matrix(0.0572117,0,0,0.0598587,-1816.06,928.64)">
                            <circle cx="-1197.82" cy="937.08" r="17.097" style="fill:rgb(4,128,252);"/>
                        </g>
                        <g transform="matrix(0.0572117,0,0,0.0598587,-1864.87,1030.98)">
                            <circle cx="-1197.82" cy="937.08" r="17.097" style="fill:rgb(4,128,252);"/>
                        </g>
                        <g transform="matrix(0.0572117,0,0,0.0598587,-1816.06,1133.33)">
                            <circle cx="-1197.82" cy="937.08" r="17.097" style="fill:rgb(4,128,252);"/>
                        </g>
                        <g transform="matrix(0.0572117,0,0,0.0598587,-1864.87,1235.67)">
                            <circle cx="-1197.82" cy="937.08" r="17.097" style="fill:rgb(4,128,252);"/>
                        </g>
                        <g transform="matrix(0.0572117,0,0,0.0598587,-1816.06,1338.01)">
                            <circle cx="-1197.82" cy="937.08" r="17.097" style="fill:rgb(4,128,252);"/>
                        </g>
                        <g transform="matrix(0.0572117,0,0,0.0598587,-1864.87,1440.35)">
                            <circle cx="-1197.82" cy="937.08" r="17.097" style="fill:rgb(4,128,252);"/>
                        </g>
                        <g transform="matrix(0.0572117,0,0,0.0598587,-1816.06,1542.7)">
                            <circle cx="-1197.82" cy="937.08" r="17.097" style="fill:rgb(4,128,252);"/>
                        </g>
                        <g transform="matrix(0.0572117,0,0,0.0598587,-1864.87,1645.04)">
                            <circle cx="-1197.82" cy="937.08" r="17.097" style="fill:rgb(4,128,252);"/>
                        </g>
                        <g transform="matrix(0.0572117,0,0,0.0598587,-1816.06,1747.38)">
                            <circle cx="-1197.82" cy="937.08" r="17.097" style="fill:rgb(4,128,252);"/>
                        </g>
                        <g transform="matrix(0.0572117,0,0,0.0598587,-1864.87,1849.72)">
                            <circle cx="-1197.82" cy="937.08" r="17.097" style="fill:rgb(4,128,252);"/>
                        </g>
                        <g transform="matrix(0.0572117,0,0,0.0598587,-1767.05,826.298)">
                            <circle cx="-1197.82" cy="937.08" r="17.097" style="fill:rgb(4,128,252);"/>
                        </g>
                        <g transform="matrix(0.0572117,0,0,0.0598587,-1718.24,928.64)">
                            <circle cx="-1197.82" cy="937.08" r="17.097" style="fill:rgb(4,128,252);"/>
                        </g>
                        <g transform="matrix(0.0572117,0,0,0.0598587,-1767.05,1030.98)">
                            <circle cx="-1197.82" cy="937.08" r="17.097" style="fill:rgb(4,128,252);"/>
                        </g>
                        <g transform="matrix(0.0572117,0,0,0.0598587,-1718.24,1133.33)">
                            <circle cx="-1197.82" cy="937.08" r="17.097" style="fill:rgb(4,128,252);"/>
                        </g>
                        <g transform="matrix(0.0572117,0,0,0.0598587,-1767.05,1235.67)">
                            <circle cx="-1197.82" cy="937.08" r="17.097" style="fill:rgb(4,128,252);"/>
                        </g>
                        <g transform="matrix(0.0572117,0,0,0.0598587,-1718.24,1338.01)">
                            <circle cx="-1197.82" cy="937.08" r="17.097" style="fill:rgb(4,128,252);"/>
                        </g>
                        <g transform="matrix(0.0572117,0,0,0.0598587,-1767.05,1440.35)">
                            <circle cx="-1197.82" cy="937.08" r="17.097" style="fill:rgb(4,128,252);"/>
                        </g>
                        <g transform="matrix(0.0572117,0,0,0.0598587,-1718.24,1542.7)">
                            <circle cx="-1197.82" cy="937.08" r="17.097" style="fill:rgb(4,128,252);"/>
                        </g>
                        <g transform="matrix(0.0572117,0,0,0.0598587,-1767.05,1645.04)">
                            <circle cx="-1197.82" cy="937.08" r="17.097" style="fill:rgb(4,128,252);"/>
                        </g>
                        <g transform="matrix(0.0572117,0,0,0.0598587,-1718.24,1747.38)">
                            <circle cx="-1197.82" cy="937.08" r="17.097" style="fill:rgb(4,128,252);"/>
                        </g>
                        <g transform="matrix(0.0572117,0,0,0.0598587,-1767.05,1849.72)">
                            <circle cx="-1197.82" cy="937.08" r="17.097" style="fill:rgb(4,128,252);"/>
                        </g>
                        <g transform="matrix(0.0572117,0,0,0.0598587,-1669.24,826.298)">
                            <circle cx="-1197.82" cy="937.08" r="17.097" style="fill:rgb(4,128,252);"/>
                        </g>
                        <g transform="matrix(0.0572117,0,0,0.0598587,-1620.42,928.64)">
                            <circle cx="-1197.82" cy="937.08" r="17.097" style="fill:rgb(4,128,252);"/>
                        </g>
                        <g transform="matrix(0.0572117,0,0,0.0598587,-1669.24,1030.98)">
                            <circle cx="-1197.82" cy="937.08" r="17.097" style="fill:rgb(4,128,252);"/>
                        </g>
                        <g transform="matrix(0.0572117,0,0,0.0598587,-1620.42,1133.33)">
                            <circle cx="-1197.82" cy="937.08" r="17.097" style="fill:rgb(4,128,252);"/>
                        </g>
                        <g transform="matrix(0.0572117,0,0,0.0598587,-1669.24,1235.67)">
                            <circle cx="-1197.82" cy="937.08" r="17.097" style="fill:rgb(4,128,252);"/>
                        </g>
                        <g transform="matrix(0.0572117,0,0,0.0598587,-1620.42,1338.01)">
                            <circle cx="-1197.82" cy="937.08" r="17.097" style="fill:rgb(4,128,252);"/>
                        </g>
                        <g transform="matrix(0.0572117,0,0,0.0598587,-1669.24,1440.35)">
                            <circle cx="-1197.82" cy="937.08" r="17.097" style="fill:rgb(4,128,252);"/>
                        </g>
                        <g transform="matrix(0.0572117,0,0,0.0598587,-1620.42,1542.7)">
                            <circle cx="-1197.82" cy="937.08" r="17.097" style="fill:rgb(4,128,252);"/>
                        </g>
                        <g transform="matrix(0.0572117,0,0,0.0598587,-1669.24,1645.04)">
                            <circle cx="-1197.82" cy="937.08" r="17.097" style="fill:rgb(4,128,252);"/>
                        </g>
                        <g transform="matrix(0.0572117,0,0,0.0598587,-1620.42,1747.38)">
                            <circle cx="-1197.82" cy="937.08" r="17.097" style="fill:rgb(4,128,252);"/>
                        </g>
                        <g transform="matrix(0.0572117,0,0,0.0598587,-1669.24,1849.72)">
                            <circle cx="-1197.82" cy="937.08" r="17.097" style="fill:rgb(4,128,252);"/>
                        </g>
                        <g transform="matrix(0.0572117,0,0,0.0598587,-1571.42,826.298)">
                            <circle cx="-1197.82" cy="937.08" r="17.097" style="fill:rgb(4,128,252);"/>
                        </g>
                        <g transform="matrix(0.0572117,0,0,0.0598587,-1522.61,928.64)">
                            <circle cx="-1197.82" cy="937.08" r="17.097" style="fill:rgb(4,128,252);"/>
                        </g>
                        <g transform="matrix(0.0572117,0,0,0.0598587,-1571.42,1030.98)">
                            <circle cx="-1197.82" cy="937.08" r="17.097" style="fill:rgb(4,128,252);"/>
                        </g>
                        <g transform="matrix(0.0572117,0,0,0.0598587,-1522.61,1133.33)">
                            <circle cx="-1197.82" cy="937.08" r="17.097" style="fill:rgb(4,128,252);"/>
                        </g>
                        <g transform="matrix(0.0572117,0,0,0.0598587,-1571.42,1235.67)">
                            <circle cx="-1197.82" cy="937.08" r="17.097" style="fill:rgb(4,128,252);"/>
                        </g>
                        <g transform="matrix(0.0572117,0,0,0.0598587,-1522.61,1338.01)">
                            <circle cx="-1197.82" cy="937.08" r="17.097" style="fill:rgb(4,128,252);"/>
                        </g>
                        <g transform="matrix(0.0572117,0,0,0.0598587,-1571.42,1440.35)">
                            <circle cx="-1197.82" cy="937.08" r="17.097" style="fill:rgb(4,128,252);"/>
                        </g>
                        <g transform="matrix(0.0572117,0,0,0.0598587,-1522.61,1542.7)">
                            <circle cx="-1197.82" cy="937.08" r="17.097" style="fill:rgb(4,128,252);"/>
                        </g>
                        <g transform="matrix(0.0572117,0,0,0.0598587,-1571.42,1645.04)">
                            <circle cx="-1197.82" cy="937.08" r="17.097" style="fill:rgb(4,128,252);"/>
                        </g>
                        <g transform="matrix(0.0572117,0,0,0.0598587,-1522.61,1747.38)">
                            <circle cx="-1197.82" cy="937.08" r="17.097" style="fill:rgb(4,128,252);"/>
                        </g>
                        <g transform="matrix(0.0572117,0,0,0.0598587,-1571.42,1849.72)">
                            <circle cx="-1197.82" cy="937.08" r="17.097" style="fill:rgb(4,128,252);"/>
                        </g>
                        <g transform="matrix(0.0572117,0,0,0.0598587,-1473.6,826.298)">
                            <circle cx="-1197.82" cy="937.08" r="17.097" style="fill:rgb(4,128,252);"/>
                        </g>
                        <g transform="matrix(0.0572117,0,0,0.0598587,-1424.79,928.64)">
                            <circle cx="-1197.82" cy="937.08" r="17.097" style="fill:rgb(4,128,252);"/>
                        </g>
                        <g transform="matrix(0.0572117,0,0,0.0598587,-1473.6,1030.98)">
                            <circle cx="-1197.82" cy="937.08" r="17.097" style="fill:rgb(4,128,252);"/>
                        </g>
                        <g transform="matrix(0.0572117,0,0,0.0598587,-1424.79,1133.33)">
                            <circle cx="-1197.82" cy="937.08" r="17.097" style="fill:rgb(4,128,252);"/>
                        </g>
                        <g transform="matrix(0.0572117,0,0,0.0598587,-1473.6,1235.67)">
                            <circle cx="-1197.82" cy="937.08" r="17.097" style="fill:rgb(4,128,252);"/>
                        </g>
                        <g transform="matrix(0.0572117,0,0,0.0598587,-1424.79,1338.01)">
                            <circle cx="-1197.82" cy="937.08" r="17.097" style="fill:rgb(4,128,252);"/>
                        </g>
                        <g transform="matrix(0.0572117,0,0,0.0598587,-1473.6,1440.35)">
                            <circle cx="-1197.82" cy="937.08" r="17.097" style="fill:rgb(4,128,252);"/>
                        </g>
                        <g transform="matrix(0.0572117,0,0,0.0598587,-1424.79,1542.7)">
                            <circle cx="-1197.82" cy="937.08" r="17.097" style="fill:rgb(4,128,252);"/>
                        </g>
                        <g transform="matrix(0.0572117,0,0,0.0598587,-1473.6,1645.04)">
                            <circle cx="-1197.82" cy="937.08" r="17.097" style="fill:rgb(4,128,252);"/>
                        </g>
                        <g transform="matrix(0.0572117,0,0,0.0598587,-1424.79,1747.38)">
                            <circle cx="-1197.82" cy="937.08" r="17.097" style="fill:rgb(4,128,252);"/>
                        </g>
                        <g transform="matrix(0.0572117,0,0,0.0598587,-1473.6,1849.72)">
                            <circle cx="-1197.82" cy="937.08" r="17.097" style="fill:rgb(4,128,252);"/>
                        </g>
                        <g transform="matrix(0.0572117,0,0,0.0598587,-1375.78,826.298)">
                            <circle cx="-1197.82" cy="937.08" r="17.097" style="fill:rgb(4,128,252);"/>
                        </g>
                        <g transform="matrix(0.0572117,0,0,0.0598587,-1326.97,928.64)">
                            <circle cx="-1197.82" cy="937.08" r="17.097" style="fill:rgb(4,128,252);"/>
                        </g>
                        <g transform="matrix(0.0572117,0,0,0.0598587,-1375.78,1030.98)">
                            <circle cx="-1197.82" cy="937.08" r="17.097" style="fill:rgb(4,128,252);"/>
                        </g>
                        <g transform="matrix(0.0572117,0,0,0.0598587,-1326.97,1133.33)">
                            <circle cx="-1197.82" cy="937.08" r="17.097" style="fill:rgb(4,128,252);"/>
                        </g>
                        <g transform="matrix(0.0572117,0,0,0.0598587,-1375.78,1235.67)">
                            <circle cx="-1197.82" cy="937.08" r="17.097" style="fill:rgb(4,128,252);"/>
                        </g>
                        <g transform="matrix(0.0572117,0,0,0.0598587,-1326.97,1338.01)">
                            <circle cx="-1197.82" cy="937.08" r="17.097" style="fill:rgb(4,128,252);"/>
                        </g>
                        <g transform="matrix(0.0572117,0,0,0.0598587,-1375.78,1440.35)">
                            <circle cx="-1197.82" cy="937.08" r="17.097" style="fill:rgb(4,128,252);"/>
                        </g>
                        <g transform="matrix(0.0572117,0,0,0.0598587,-1326.97,1542.7)">
                            <circle cx="-1197.82" cy="937.08" r="17.097" style="fill:rgb(4,128,252);"/>
                        </g>
                        <g transform="matrix(0.0572117,0,0,0.0598587,-1375.78,1645.04)">
                            <circle cx="-1197.82" cy="937.08" r="17.097" style="fill:rgb(4,128,252);"/>
                        </g>
                        <g transform="matrix(0.0572117,0,0,0.0598587,-1326.97,1747.38)">
                            <circle cx="-1197.82" cy="937.08" r="17.097" style="fill:rgb(4,128,252);"/>
                        </g>
                        <g transform="matrix(0.0572117,0,0,0.0598587,-1375.78,1849.72)">
                            <circle cx="-1197.82" cy="937.08" r="17.097" style="fill:rgb(4,128,252);"/>
                        </g>
                        <g transform="matrix(0.0572117,0,0,0.0598587,-1277.97,826.298)">
                            <circle cx="-1197.82" cy="937.08" r="17.097" style="fill:rgb(4,128,252);"/>
                        </g>
                        <g transform="matrix(0.0572117,0,0,0.0598587,-1229.16,928.64)">
                            <circle cx="-1197.82" cy="937.08" r="17.097" style="fill:rgb(4,128,252);"/>
                        </g>
                        <g transform="matrix(0.0572117,0,0,0.0598587,-1277.97,1030.98)">
                            <circle cx="-1197.82" cy="937.08" r="17.097" style="fill:rgb(4,128,252);"/>
                        </g>
                        <g transform="matrix(0.0572117,0,0,0.0598587,-1229.16,1133.33)">
                            <circle cx="-1197.82" cy="937.08" r="17.097" style="fill:rgb(4,128,252);"/>
                        </g>
                        <g transform="matrix(0.0572117,0,0,0.0598587,-1277.97,1235.67)">
                            <circle cx="-1197.82" cy="937.08" r="17.097" style="fill:rgb(4,128,252);"/>
                        </g>
                        <g transform="matrix(0.0572117,0,0,0.0598587,-1229.16,1338.01)">
                            <circle cx="-1197.82" cy="937.08" r="17.097" style="fill:rgb(4,128,252);"/>
                        </g>
                        <g transform="matrix(0.0572117,0,0,0.0598587,-1277.97,1440.35)">
                            <circle cx="-1197.82" cy="937.08" r="17.097" style="fill:rgb(4,128,252);"/>
                        </g>
                        <g transform="matrix(0.0572117,0,0,0.0598587,-1229.16,1542.7)">
                            <circle cx="-1197.82" cy="937.08" r="17.097" style="fill:rgb(4,128,252);"/>
                        </g>
                        <g transform="matrix(0.0572117,0,0,0.0598587,-1277.97,1645.04)">
                            <circle cx="-1197.82" cy="937.08" r="17.097" style="fill:rgb(4,128,252);"/>
                        </g>
                        <g transform="matrix(0.0572117,0,0,0.0598587,-1229.16,1747.38)">
                            <circle cx="-1197.82" cy="937.08" r="17.097" style="fill:rgb(4,128,252);"/>
                        </g>
                        <g transform="matrix(0.0572117,0,0,0.0598587,-1277.97,1849.72)">
                            <circle cx="-1197.82" cy="937.08" r="17.097" style="fill:rgb(4,128,252);"/>
                        </g>
                        <g transform="matrix(0.0572117,0,0,0.0598587,-1180.15,826.298)">
                            <circle cx="-1197.82" cy="937.08" r="17.097" style="fill:rgb(4,128,252);"/>
                        </g>
                        <g transform="matrix(0.0572117,0,0,0.0598587,-1131.34,928.64)">
                            <circle cx="-1197.82" cy="937.08" r="17.097" style="fill:rgb(4,128,252);"/>
                        </g>
                        <g transform="matrix(0.0572117,0,0,0.0598587,-1180.15,1030.98)">
                            <circle cx="-1197.82" cy="937.08" r="17.097" style="fill:rgb(4,128,252);"/>
                        </g>
                        <g transform="matrix(0.0572117,0,0,0.0598587,-1131.34,1133.33)">
                            <circle cx="-1197.82" cy="937.08" r="17.097" style="fill:rgb(4,128,252);"/>
                        </g>
                        <g transform="matrix(0.0572117,0,0,0.0598587,-1180.15,1235.67)">
                            <circle cx="-1197.82" cy="937.08" r="17.097" style="fill:rgb(4,128,252);"/>
                        </g>
                        <g transform="matrix(0.0572117,0,0,0.0598587,-1131.34,1338.01)">
                            <circle cx="-1197.82" cy="937.08" r="17.097" style="fill:rgb(4,128,252);"/>
                        </g>
                        <g transform="matrix(0.0572117,0,0,0.0598587,-1180.15,1440.35)">
                            <circle cx="-1197.82" cy="937.08" r="17.097" style="fill:rgb(4,128,252);"/>
                        </g>
                        <g transform="matrix(0.0572117,0,0,0.0598587,-1131.34,1542.7)">
                            <circle cx="-1197.82" cy="937.08" r="17.097" style="fill:rgb(4,128,252);"/>
                        </g>
                        <g transform="matrix(0.0572117,0,0,0.0598587,-1180.15,1645.04)">
                            <circle cx="-1197.82" cy="937.08" r="17.097" style="fill:rgb(4,128,252);"/>
                        </g>
                        <g transform="matrix(0.0572117,0,0,0.0598587,-1131.34,1747.38)">
                            <circle cx="-1197.82" cy="937.08" r="17.097" style="fill:rgb(4,128,252);"/>
                        </g>
                        <g transform="matrix(0.0572117,0,0,0.0598587,-1180.15,1849.72)">
                            <circle cx="-1197.82" cy="937.08" r="17.097" style="fill:rgb(4,128,252);"/>
                        </g>
                        <g transform="matrix(0.0572117,0,0,0.0598587,-1082.33,826.298)">
                            <circle cx="-1197.82" cy="937.08" r="17.097" style="fill:rgb(4,128,252);"/>
                        </g>
                        <g transform="matrix(0.0572117,0,0,0.0598587,-1033.52,928.64)">
                            <circle cx="-1197.82" cy="937.08" r="17.097" style="fill:rgb(4,128,252);"/>
                        </g>
                        <g transform="matrix(0.0572117,0,0,0.0598587,-1082.33,1030.98)">
                            <circle cx="-1197.82" cy="937.08" r="17.097" style="fill:rgb(4,128,252);"/>
                        </g>
                        <g transform="matrix(0.0572117,0,0,0.0598587,-1033.52,1133.33)">
                            <circle cx="-1197.82" cy="937.08" r="17.097" style="fill:rgb(4,128,252);"/>
                        </g>
                        <g transform="matrix(0.0572117,0,0,0.0598587,-1082.33,1235.67)">
                            <circle cx="-1197.82" cy="937.08" r="17.097" style="fill:rgb(4,128,252);"/>
                        </g>
                        <g transform="matrix(0.0572117,0,0,0.0598587,-1033.52,1338.01)">
                            <circle cx="-1197.82" cy="937.08" r="17.097" style="fill:rgb(4,128,252);"/>
                        </g>
                        <g transform="matrix(0.0572117,0,0,0.0598587,-1082.33,1440.35)">
                            <circle cx="-1197.82" cy="937.08" r="17.097" style="fill:rgb(4,128,252);"/>
                        </g>
                        <g transform="matrix(0.0572117,0,0,0.0598587,-1033.52,1542.7)">
                            <circle cx="-1197.82" cy="937.08" r="17.097" style="fill:rgb(4,128,252);"/>
                        </g>
                        <g transform="matrix(0.0572117,0,0,0.0598587,-1082.33,1645.04)">
                            <circle cx="-1197.82" cy="937.08" r="17.097" style="fill:rgb(4,128,252);"/>
                        </g>
                        <g transform="matrix(0.0572117,0,0,0.0598587,-1033.52,1747.38)">
                            <circle cx="-1197.82" cy="937.08" r="17.097" style="fill:rgb(4,128,252);"/>
                        </g>
                        <g transform="matrix(0.0572117,0,0,0.0598587,-1082.33,1849.72)">
                            <circle cx="-1197.82" cy="937.08" r="17.097" style="fill:rgb(4,128,252);"/>
                        </g>
                        <g transform="matrix(0.0572117,0,0,0.0598587,-984.517,826.298)">
                            <circle cx="-1197.82" cy="937.08" r="17.097" style="fill:rgb(4,128,252);"/>
                        </g>
                        <g transform="matrix(0.0572117,0,0,0.0598587,-935.707,928.64)">
                            <circle cx="-1197.82" cy="937.08" r="17.097" style="fill:rgb(4,128,252);"/>
                        </g>
                        <g transform="matrix(0.0572117,0,0,0.0598587,-984.517,1030.98)">
                            <circle cx="-1197.82" cy="937.08" r="17.097" style="fill:rgb(4,128,252);"/>
                        </g>
                        <g transform="matrix(0.0572117,0,0,0.0598587,-935.707,1133.33)">
                            <circle cx="-1197.82" cy="937.08" r="17.097" style="fill:rgb(4,128,252);"/>
                        </g>
                        <g transform="matrix(0.0572117,0,0,0.0598587,-984.517,1235.67)">
                            <circle cx="-1197.82" cy="937.08" r="17.097" style="fill:rgb(4,128,252);"/>
                        </g>
                        <g transform="matrix(0.0572117,0,0,0.0598587,-935.707,1338.01)">
                            <circle cx="-1197.82" cy="937.08" r="17.097" style="fill:rgb(4,128,252);"/>
                        </g>
                        <g transform="matrix(0.0572117,0,0,0.0598587,-984.517,1440.35)">
                            <circle cx="-1197.82" cy="937.08" r="17.097" style="fill:rgb(4,128,252);"/>
                        </g>
                        <g transform="matrix(0.0572117,0,0,0.0598587,-935.707,1542.7)">
                            <circle cx="-1197.82" cy="937.08" r="17.097" style="fill:rgb(4,128,252);"/>
                        </g>
                        <g transform="matrix(0.0572117,0,0,0.0598587,-984.517,1645.04)">
                            <circle cx="-1197.82" cy="937.08" r="17.097" style="fill:rgb(4,128,252);"/>
                        </g>
                        <g transform="matrix(0.0572117,0,0,0.0598587,-935.707,1747.38)">
                            <circle cx="-1197.82" cy="937.08" r="17.097" style="fill:rgb(4,128,252);"/>
                        </g>
                        <g transform="matrix(0.0572117,0,0,0.0598587,-984.517,1849.72)">
                            <circle cx="-1197.82" cy="937.08" r="17.097" style="fill:rgb(4,128,252);"/>
                        </g>
                        <g transform="matrix(0.0572117,0,0,0.0598587,-886.7,826.298)">
                            <circle cx="-1197.82" cy="937.08" r="17.097" style="fill:rgb(4,128,252);"/>
                        </g>
                        <g transform="matrix(0.0572117,0,0,0.0598587,-1913.78,928.64)">
                            <circle cx="-1197.82" cy="937.08" r="17.097" style="fill:rgb(4,128,252);"/>
                        </g>
                        <g transform="matrix(0.0572117,0,0,0.0598587,-886.7,1030.98)">
                            <circle cx="-1197.82" cy="937.08" r="17.097" style="fill:rgb(4,128,252);"/>
                        </g>
                        <g transform="matrix(0.0572117,0,0,0.0598587,-1913.78,1133.33)">
                            <circle cx="-1197.82" cy="937.08" r="17.097" style="fill:rgb(4,128,252);"/>
                        </g>
                        <g transform="matrix(0.0572117,0,0,0.0598587,-886.7,1235.67)">
                            <circle cx="-1197.82" cy="937.08" r="17.097" style="fill:rgb(4,128,252);"/>
                        </g>
                        <g transform="matrix(0.0572117,0,0,0.0598587,-1913.78,1338.01)">
                            <circle cx="-1197.82" cy="937.08" r="17.097" style="fill:rgb(4,128,252);"/>
                        </g>
                        <g transform="matrix(0.0572117,0,0,0.0598587,-886.7,1440.35)">
                            <circle cx="-1197.82" cy="937.08" r="17.097" style="fill:rgb(4,128,252);"/>
                        </g>
                        <g transform="matrix(0.0572117,0,0,0.0598587,-1913.78,1542.7)">
                            <circle cx="-1197.82" cy="937.08" r="17.097" style="fill:rgb(4,128,252);"/>
                        </g>
                        <g transform="matrix(0.0572117,0,0,0.0598587,-886.7,1645.04)">
                            <circle cx="-1197.82" cy="937.08" r="17.097" style="fill:rgb(4,128,252);"/>
                        </g>
                        <g transform="matrix(0.0572117,0,0,0.0598587,-1913.78,1747.38)">
                            <circle cx="-1197.82" cy="937.08" r="17.097" style="fill:rgb(4,128,252);"/>
                        </g>
                        <g transform="matrix(0.0572117,0,0,0.0598587,-886.7,1849.72)">
                            <circle cx="-1197.82" cy="937.08" r="17.097" style="fill:rgb(4,128,252);"/>
                        </g>
                    </g>
                </g>
            </g>
        </g>
    </g>
</svg>
