<?xml version="1.0" encoding="UTF-8" standalone="no"?>
<!DOCTYPE svg PUBLIC "-//W3C//DTD SVG 1.1//EN" "http://www.w3.org/Graphics/SVG/1.1/DTD/svg11.dtd">
<svg width="100%" height="100%" viewBox="0 0 1000 1000" version="1.1" xmlns="http://www.w3.org/2000/svg" xmlns:xlink="http://www.w3.org/1999/xlink" xml:space="preserve" xmlns:serif="http://www.serif.com/" style="fill-rule:evenodd;clip-rule:evenodd;stroke-linejoin:round;stroke-miterlimit:2;">
    <g transform="matrix(1,0,0,1,-2347,-1000)">
        <g id="front" transform="matrix(1,0,0,1,1297.62,1000)">
            <rect x="1050" y="0" width="1000" height="1000" style="fill:rgb(230,230,230);"/>
            <clipPath id="_clip1">
                <rect x="1050" y="0" width="1000" height="1000"/>
            </clipPath>
            <g clip-path="url(#_clip1)">
                <g transform="matrix(1.00239,0,0,1,1049,1.13687e-13)">
                    <g transform="matrix(0.997025,-5.55112e-17,1.66533e-16,1,2.97457,-1000)">
                        <rect x="-2.983" y="1000" width="1002.98" height="1000" style="fill:rgb(230,230,230);"/>
                        <clipPath id="_clip2">
                            <rect x="-2.983" y="1000" width="1002.98" height="1000"/>
                        </clipPath>
                        <g clip-path="url(#_clip2)">
                            <g transform="matrix(1.00298,0,0,0.71344,-1005.97,429.322)">
                                <path d="M2000,1569.33C1389.62,1374.21 1327.59,1667.57 1000,1569.33L1000,2000L2000,2000L2000,1569.33Z" style="fill:url(#_Linear3);"/>
                            </g>
                            <g transform="matrix(1.00298,0,0,0.71344,-1005.97,-25.9057)">
                                <path d="M2000,1569.33C1484.44,1379.15 1425.16,2221.48 992.124,1557.11L1000,2000L2000,2000L2000,1569.33Z" style="fill:url(#_Linear4);"/>
                            </g>
                            <g transform="matrix(1.00298,0,0,0.71344,-1005.97,102.767)">
                                <path d="M2010.74,1573.42C1512.23,1389.54 1410.23,2078.61 992.097,1559.85L1000,2000L2000,2000L2010.74,1573.42Z" style="fill:url(#_Linear5);"/>
                            </g>
                            <g transform="matrix(1.00298,0,0,0.71344,-1005.97,231.439)">
                                <path d="M2004.51,1570.73C1488.23,1380.29 1453.84,1943.01 993.622,1563.78L1000,2000L2000,2000L2004.51,1570.73Z" style="fill:url(#_Linear6);"/>
                            </g>
                            <g transform="matrix(1.00298,1.85441e-31,4.04516e-31,0.71344,-1005.97,386.289)">
                                <path d="M2010.2,1574.42C1491.74,1328.21 1474.01,1802.42 991.563,1564.94L1000,2000L2000,2000L2010.2,1574.42Z" style="fill:url(#_Linear7);"/>
                            </g>
                            <g transform="matrix(1.00298,0,0,0.71344,-1005.97,573.121)">
                                <path d="M2004.34,1573.15C1565.11,1216.85 1474.8,1680.1 999.576,1568.44L1000,2000L2000,2000L2004.34,1573.15Z" style="fill:url(#_Linear8);"/>
                            </g>
                        </g>
                    </g>
                    <g transform="matrix(0.92938,0,0,0.888282,1842.32,-738.357)">
                        <rect x="-1982.31" y="831.219" width="1075.99" height="1125.77" style="fill:none;"/>
                        <clipPath id="_clip9">
                            <rect x="-1982.31" y="831.219" width="1075.99" height="1125.77"/>
                        </clipPath>
                        <g clip-path="url(#_clip9)">
                            <g transform="matrix(0.0572117,0,0,0.0598587,-1864.87,826.298)">
                                <circle cx="-1197.82" cy="937.08" r="17.097" style="fill:rgb(4,128,252);"/>
                            </g>
                            <g transform="matrix(0.0572117,0,0,0.0598587,-1816.06,928.64)">
                                <circle cx="-1197.82" cy="937.08" r="17.097" style="fill:rgb(4,128,252);"/>
                            </g>
                            <g transform="matrix(0.0572117,0,0,0.0598587,-1864.87,1030.98)">
                                <circle cx="-1197.82" cy="937.08" r="17.097" style="fill:rgb(4,128,252);"/>
                            </g>
                            <g transform="matrix(0.0572117,0,0,0.0598587,-1816.06,1133.33)">
                                <circle cx="-1197.82" cy="937.08" r="17.097" style="fill:rgb(4,128,252);"/>
                            </g>
                            <g transform="matrix(0.0572117,0,0,0.0598587,-1864.87,1235.67)">
                                <circle cx="-1197.82" cy="937.08" r="17.097" style="fill:rgb(4,128,252);"/>
                            </g>
                            <g transform="matrix(0.0572117,0,0,0.0598587,-1816.06,1338.01)">
                                <circle cx="-1197.82" cy="937.08" r="17.097" style="fill:rgb(4,128,252);"/>
                            </g>
                            <g transform="matrix(0.0572117,0,0,0.0598587,-1864.87,1440.35)">
                                <circle cx="-1197.82" cy="937.08" r="17.097" style="fill:rgb(4,128,252);"/>
                            </g>
                            <g transform="matrix(0.0572117,0,0,0.0598587,-1816.06,1542.7)">
                                <circle cx="-1197.82" cy="937.08" r="17.097" style="fill:rgb(4,128,252);"/>
                            </g>
                            <g transform="matrix(0.0572117,0,0,0.0598587,-1864.87,1645.04)">
                                <circle cx="-1197.82" cy="937.08" r="17.097" style="fill:rgb(4,128,252);"/>
                            </g>
                            <g transform="matrix(0.0572117,0,0,0.0598587,-1816.06,1747.38)">
                                <circle cx="-1197.82" cy="937.08" r="17.097" style="fill:rgb(4,128,252);"/>
                            </g>
                            <g transform="matrix(0.0572117,0,0,0.0598587,-1864.87,1849.72)">
                                <circle cx="-1197.82" cy="937.08" r="17.097" style="fill:rgb(4,128,252);"/>
                            </g>
                            <g transform="matrix(0.0572117,0,0,0.0598587,-1767.05,826.298)">
                                <circle cx="-1197.82" cy="937.08" r="17.097" style="fill:rgb(4,128,252);"/>
                            </g>
                            <g transform="matrix(0.0572117,0,0,0.0598587,-1718.24,928.64)">
                                <circle cx="-1197.82" cy="937.08" r="17.097" style="fill:rgb(4,128,252);"/>
                            </g>
                            <g transform="matrix(0.0572117,0,0,0.0598587,-1767.05,1030.98)">
                                <circle cx="-1197.82" cy="937.08" r="17.097" style="fill:rgb(4,128,252);"/>
                            </g>
                            <g transform="matrix(0.0572117,0,0,0.0598587,-1718.24,1133.33)">
                                <circle cx="-1197.82" cy="937.08" r="17.097" style="fill:rgb(4,128,252);"/>
                            </g>
                            <g transform="matrix(0.0572117,0,0,0.0598587,-1767.05,1235.67)">
                                <circle cx="-1197.82" cy="937.08" r="17.097" style="fill:rgb(4,128,252);"/>
                            </g>
                            <g transform="matrix(0.0572117,0,0,0.0598587,-1718.24,1338.01)">
                                <circle cx="-1197.82" cy="937.08" r="17.097" style="fill:rgb(4,128,252);"/>
                            </g>
                            <g transform="matrix(0.0572117,0,0,0.0598587,-1767.05,1440.35)">
                                <circle cx="-1197.82" cy="937.08" r="17.097" style="fill:rgb(4,128,252);"/>
                            </g>
                            <g transform="matrix(0.0572117,0,0,0.0598587,-1718.24,1542.7)">
                                <circle cx="-1197.82" cy="937.08" r="17.097" style="fill:rgb(4,128,252);"/>
                            </g>
                            <g transform="matrix(0.0572117,0,0,0.0598587,-1767.05,1645.04)">
                                <circle cx="-1197.82" cy="937.08" r="17.097" style="fill:rgb(4,128,252);"/>
                            </g>
                            <g transform="matrix(0.0572117,0,0,0.0598587,-1718.24,1747.38)">
                                <circle cx="-1197.82" cy="937.08" r="17.097" style="fill:rgb(4,128,252);"/>
                            </g>
                            <g transform="matrix(0.0572117,0,0,0.0598587,-1767.05,1849.72)">
                                <circle cx="-1197.82" cy="937.08" r="17.097" style="fill:rgb(4,128,252);"/>
                            </g>
                            <g transform="matrix(0.0572117,0,0,0.0598587,-1669.24,826.298)">
                                <circle cx="-1197.82" cy="937.08" r="17.097" style="fill:rgb(4,128,252);"/>
                            </g>
                            <g transform="matrix(0.0572117,0,0,0.0598587,-1620.42,928.64)">
                                <circle cx="-1197.82" cy="937.08" r="17.097" style="fill:rgb(4,128,252);"/>
                            </g>
                            <g transform="matrix(0.0572117,0,0,0.0598587,-1669.24,1030.98)">
                                <circle cx="-1197.82" cy="937.08" r="17.097" style="fill:rgb(4,128,252);"/>
                            </g>
                            <g transform="matrix(0.0572117,0,0,0.0598587,-1620.42,1133.33)">
                                <circle cx="-1197.82" cy="937.08" r="17.097" style="fill:rgb(4,128,252);"/>
                            </g>
                            <g transform="matrix(0.0572117,0,0,0.0598587,-1669.24,1235.67)">
                                <circle cx="-1197.82" cy="937.08" r="17.097" style="fill:rgb(4,128,252);"/>
                            </g>
                            <g transform="matrix(0.0572117,0,0,0.0598587,-1620.42,1338.01)">
                                <circle cx="-1197.82" cy="937.08" r="17.097" style="fill:rgb(4,128,252);"/>
                            </g>
                            <g transform="matrix(0.0572117,0,0,0.0598587,-1669.24,1440.35)">
                                <circle cx="-1197.82" cy="937.08" r="17.097" style="fill:rgb(4,128,252);"/>
                            </g>
                            <g transform="matrix(0.0572117,0,0,0.0598587,-1620.42,1542.7)">
                                <circle cx="-1197.82" cy="937.08" r="17.097" style="fill:rgb(4,128,252);"/>
                            </g>
                            <g transform="matrix(0.0572117,0,0,0.0598587,-1669.24,1645.04)">
                                <circle cx="-1197.82" cy="937.08" r="17.097" style="fill:rgb(4,128,252);"/>
                            </g>
                            <g transform="matrix(0.0572117,0,0,0.0598587,-1620.42,1747.38)">
                                <circle cx="-1197.82" cy="937.08" r="17.097" style="fill:rgb(4,128,252);"/>
                            </g>
                            <g transform="matrix(0.0572117,0,0,0.0598587,-1669.24,1849.72)">
                                <circle cx="-1197.82" cy="937.08" r="17.097" style="fill:rgb(4,128,252);"/>
                            </g>
                            <g transform="matrix(0.0572117,0,0,0.0598587,-1571.42,826.298)">
                                <circle cx="-1197.82" cy="937.08" r="17.097" style="fill:rgb(4,128,252);"/>
                            </g>
                            <g transform="matrix(0.0572117,0,0,0.0598587,-1522.61,928.64)">
                                <circle cx="-1197.82" cy="937.08" r="17.097" style="fill:rgb(4,128,252);"/>
                            </g>
                            <g transform="matrix(0.0572117,0,0,0.0598587,-1571.42,1030.98)">
                                <circle cx="-1197.82" cy="937.08" r="17.097" style="fill:rgb(4,128,252);"/>
                            </g>
                            <g transform="matrix(0.0572117,0,0,0.0598587,-1522.61,1133.33)">
                                <circle cx="-1197.82" cy="937.08" r="17.097" style="fill:rgb(4,128,252);"/>
                            </g>
                            <g transform="matrix(0.0572117,0,0,0.0598587,-1571.42,1235.67)">
                                <circle cx="-1197.82" cy="937.08" r="17.097" style="fill:rgb(4,128,252);"/>
                            </g>
                            <g transform="matrix(0.0572117,0,0,0.0598587,-1522.61,1338.01)">
                                <circle cx="-1197.82" cy="937.08" r="17.097" style="fill:rgb(4,128,252);"/>
                            </g>
                            <g transform="matrix(0.0572117,0,0,0.0598587,-1571.42,1440.35)">
                                <circle cx="-1197.82" cy="937.08" r="17.097" style="fill:rgb(4,128,252);"/>
                            </g>
                            <g transform="matrix(0.0572117,0,0,0.0598587,-1522.61,1542.7)">
                                <circle cx="-1197.82" cy="937.08" r="17.097" style="fill:rgb(4,128,252);"/>
                            </g>
                            <g transform="matrix(0.0572117,0,0,0.0598587,-1571.42,1645.04)">
                                <circle cx="-1197.82" cy="937.08" r="17.097" style="fill:rgb(4,128,252);"/>
                            </g>
                            <g transform="matrix(0.0572117,0,0,0.0598587,-1522.61,1747.38)">
                                <circle cx="-1197.82" cy="937.08" r="17.097" style="fill:rgb(4,128,252);"/>
                            </g>
                            <g transform="matrix(0.0572117,0,0,0.0598587,-1571.42,1849.72)">
                                <circle cx="-1197.82" cy="937.08" r="17.097" style="fill:rgb(4,128,252);"/>
                            </g>
                            <g transform="matrix(0.0572117,0,0,0.0598587,-1473.6,826.298)">
                                <circle cx="-1197.82" cy="937.08" r="17.097" style="fill:rgb(4,128,252);"/>
                            </g>
                            <g transform="matrix(0.0572117,0,0,0.0598587,-1424.79,928.64)">
                                <circle cx="-1197.82" cy="937.08" r="17.097" style="fill:rgb(4,128,252);"/>
                            </g>
                            <g transform="matrix(0.0572117,0,0,0.0598587,-1473.6,1030.98)">
                                <circle cx="-1197.82" cy="937.08" r="17.097" style="fill:rgb(4,128,252);"/>
                            </g>
                            <g transform="matrix(0.0572117,0,0,0.0598587,-1424.79,1133.33)">
                                <circle cx="-1197.82" cy="937.08" r="17.097" style="fill:rgb(4,128,252);"/>
                            </g>
                            <g transform="matrix(0.0572117,0,0,0.0598587,-1473.6,1235.67)">
                                <circle cx="-1197.82" cy="937.08" r="17.097" style="fill:rgb(4,128,252);"/>
                            </g>
                            <g transform="matrix(0.0572117,0,0,0.0598587,-1424.79,1338.01)">
                                <circle cx="-1197.82" cy="937.08" r="17.097" style="fill:rgb(4,128,252);"/>
                            </g>
                            <g transform="matrix(0.0572117,0,0,0.0598587,-1473.6,1440.35)">
                                <circle cx="-1197.82" cy="937.08" r="17.097" style="fill:rgb(4,128,252);"/>
                            </g>
                            <g transform="matrix(0.0572117,0,0,0.0598587,-1424.79,1542.7)">
                                <circle cx="-1197.82" cy="937.08" r="17.097" style="fill:rgb(4,128,252);"/>
                            </g>
                            <g transform="matrix(0.0572117,0,0,0.0598587,-1473.6,1645.04)">
                                <circle cx="-1197.82" cy="937.08" r="17.097" style="fill:rgb(4,128,252);"/>
                            </g>
                            <g transform="matrix(0.0572117,0,0,0.0598587,-1424.79,1747.38)">
                                <circle cx="-1197.82" cy="937.08" r="17.097" style="fill:rgb(4,128,252);"/>
                            </g>
                            <g transform="matrix(0.0572117,0,0,0.0598587,-1473.6,1849.72)">
                                <circle cx="-1197.82" cy="937.08" r="17.097" style="fill:rgb(4,128,252);"/>
                            </g>
                            <g transform="matrix(0.0572117,0,0,0.0598587,-1375.78,826.298)">
                                <circle cx="-1197.82" cy="937.08" r="17.097" style="fill:rgb(4,128,252);"/>
                            </g>
                            <g transform="matrix(0.0572117,0,0,0.0598587,-1326.97,928.64)">
                                <circle cx="-1197.82" cy="937.08" r="17.097" style="fill:rgb(4,128,252);"/>
                            </g>
                            <g transform="matrix(0.0572117,0,0,0.0598587,-1375.78,1030.98)">
                                <circle cx="-1197.82" cy="937.08" r="17.097" style="fill:rgb(4,128,252);"/>
                            </g>
                            <g transform="matrix(0.0572117,0,0,0.0598587,-1326.97,1133.33)">
                                <circle cx="-1197.82" cy="937.08" r="17.097" style="fill:rgb(4,128,252);"/>
                            </g>
                            <g transform="matrix(0.0572117,0,0,0.0598587,-1375.78,1235.67)">
                                <circle cx="-1197.82" cy="937.08" r="17.097" style="fill:rgb(4,128,252);"/>
                            </g>
                            <g transform="matrix(0.0572117,0,0,0.0598587,-1326.97,1338.01)">
                                <circle cx="-1197.82" cy="937.08" r="17.097" style="fill:rgb(4,128,252);"/>
                            </g>
                            <g transform="matrix(0.0572117,0,0,0.0598587,-1375.78,1440.35)">
                                <circle cx="-1197.82" cy="937.08" r="17.097" style="fill:rgb(4,128,252);"/>
                            </g>
                            <g transform="matrix(0.0572117,0,0,0.0598587,-1326.97,1542.7)">
                                <circle cx="-1197.82" cy="937.08" r="17.097" style="fill:rgb(4,128,252);"/>
                            </g>
                            <g transform="matrix(0.0572117,0,0,0.0598587,-1375.78,1645.04)">
                                <circle cx="-1197.82" cy="937.08" r="17.097" style="fill:rgb(4,128,252);"/>
                            </g>
                            <g transform="matrix(0.0572117,0,0,0.0598587,-1326.97,1747.38)">
                                <circle cx="-1197.82" cy="937.08" r="17.097" style="fill:rgb(4,128,252);"/>
                            </g>
                            <g transform="matrix(0.0572117,0,0,0.0598587,-1375.78,1849.72)">
                                <circle cx="-1197.82" cy="937.08" r="17.097" style="fill:rgb(4,128,252);"/>
                            </g>
                            <g transform="matrix(0.0572117,0,0,0.0598587,-1277.97,826.298)">
                                <circle cx="-1197.82" cy="937.08" r="17.097" style="fill:rgb(4,128,252);"/>
                            </g>
                            <g transform="matrix(0.0572117,0,0,0.0598587,-1229.16,928.64)">
                                <circle cx="-1197.82" cy="937.08" r="17.097" style="fill:rgb(4,128,252);"/>
                            </g>
                            <g transform="matrix(0.0572117,0,0,0.0598587,-1277.97,1030.98)">
                                <circle cx="-1197.82" cy="937.08" r="17.097" style="fill:rgb(4,128,252);"/>
                            </g>
                            <g transform="matrix(0.0572117,0,0,0.0598587,-1229.16,1133.33)">
                                <circle cx="-1197.82" cy="937.08" r="17.097" style="fill:rgb(4,128,252);"/>
                            </g>
                            <g transform="matrix(0.0572117,0,0,0.0598587,-1277.97,1235.67)">
                                <circle cx="-1197.82" cy="937.08" r="17.097" style="fill:rgb(4,128,252);"/>
                            </g>
                            <g transform="matrix(0.0572117,0,0,0.0598587,-1229.16,1338.01)">
                                <circle cx="-1197.82" cy="937.08" r="17.097" style="fill:rgb(4,128,252);"/>
                            </g>
                            <g transform="matrix(0.0572117,0,0,0.0598587,-1277.97,1440.35)">
                                <circle cx="-1197.82" cy="937.08" r="17.097" style="fill:rgb(4,128,252);"/>
                            </g>
                            <g transform="matrix(0.0572117,0,0,0.0598587,-1229.16,1542.7)">
                                <circle cx="-1197.82" cy="937.08" r="17.097" style="fill:rgb(4,128,252);"/>
                            </g>
                            <g transform="matrix(0.0572117,0,0,0.0598587,-1277.97,1645.04)">
                                <circle cx="-1197.82" cy="937.08" r="17.097" style="fill:rgb(4,128,252);"/>
                            </g>
                            <g transform="matrix(0.0572117,0,0,0.0598587,-1229.16,1747.38)">
                                <circle cx="-1197.82" cy="937.08" r="17.097" style="fill:rgb(4,128,252);"/>
                            </g>
                            <g transform="matrix(0.0572117,0,0,0.0598587,-1277.97,1849.72)">
                                <circle cx="-1197.82" cy="937.08" r="17.097" style="fill:rgb(4,128,252);"/>
                            </g>
                            <g transform="matrix(0.0572117,0,0,0.0598587,-1180.15,826.298)">
                                <circle cx="-1197.82" cy="937.08" r="17.097" style="fill:rgb(4,128,252);"/>
                            </g>
                            <g transform="matrix(0.0572117,0,0,0.0598587,-1131.34,928.64)">
                                <circle cx="-1197.82" cy="937.08" r="17.097" style="fill:rgb(4,128,252);"/>
                            </g>
                            <g transform="matrix(0.0572117,0,0,0.0598587,-1180.15,1030.98)">
                                <circle cx="-1197.82" cy="937.08" r="17.097" style="fill:rgb(4,128,252);"/>
                            </g>
                            <g transform="matrix(0.0572117,0,0,0.0598587,-1131.34,1133.33)">
                                <circle cx="-1197.82" cy="937.08" r="17.097" style="fill:rgb(4,128,252);"/>
                            </g>
                            <g transform="matrix(0.0572117,0,0,0.0598587,-1180.15,1235.67)">
                                <circle cx="-1197.82" cy="937.08" r="17.097" style="fill:rgb(4,128,252);"/>
                            </g>
                            <g transform="matrix(0.0572117,0,0,0.0598587,-1131.34,1338.01)">
                                <circle cx="-1197.82" cy="937.08" r="17.097" style="fill:rgb(4,128,252);"/>
                            </g>
                            <g transform="matrix(0.0572117,0,0,0.0598587,-1180.15,1440.35)">
                                <circle cx="-1197.82" cy="937.08" r="17.097" style="fill:rgb(4,128,252);"/>
                            </g>
                            <g transform="matrix(0.0572117,0,0,0.0598587,-1131.34,1542.7)">
                                <circle cx="-1197.82" cy="937.08" r="17.097" style="fill:rgb(4,128,252);"/>
                            </g>
                            <g transform="matrix(0.0572117,0,0,0.0598587,-1180.15,1645.04)">
                                <circle cx="-1197.82" cy="937.08" r="17.097" style="fill:rgb(4,128,252);"/>
                            </g>
                            <g transform="matrix(0.0572117,0,0,0.0598587,-1131.34,1747.38)">
                                <circle cx="-1197.82" cy="937.08" r="17.097" style="fill:rgb(4,128,252);"/>
                            </g>
                            <g transform="matrix(0.0572117,0,0,0.0598587,-1180.15,1849.72)">
                                <circle cx="-1197.82" cy="937.08" r="17.097" style="fill:rgb(4,128,252);"/>
                            </g>
                            <g transform="matrix(0.0572117,0,0,0.0598587,-1082.33,826.298)">
                                <circle cx="-1197.82" cy="937.08" r="17.097" style="fill:rgb(4,128,252);"/>
                            </g>
                            <g transform="matrix(0.0572117,0,0,0.0598587,-1033.52,928.64)">
                                <circle cx="-1197.82" cy="937.08" r="17.097" style="fill:rgb(4,128,252);"/>
                            </g>
                            <g transform="matrix(0.0572117,0,0,0.0598587,-1082.33,1030.98)">
                                <circle cx="-1197.82" cy="937.08" r="17.097" style="fill:rgb(4,128,252);"/>
                            </g>
                            <g transform="matrix(0.0572117,0,0,0.0598587,-1033.52,1133.33)">
                                <circle cx="-1197.82" cy="937.08" r="17.097" style="fill:rgb(4,128,252);"/>
                            </g>
                            <g transform="matrix(0.0572117,0,0,0.0598587,-1082.33,1235.67)">
                                <circle cx="-1197.82" cy="937.08" r="17.097" style="fill:rgb(4,128,252);"/>
                            </g>
                            <g transform="matrix(0.0572117,0,0,0.0598587,-1033.52,1338.01)">
                                <circle cx="-1197.82" cy="937.08" r="17.097" style="fill:rgb(4,128,252);"/>
                            </g>
                            <g transform="matrix(0.0572117,0,0,0.0598587,-1082.33,1440.35)">
                                <circle cx="-1197.82" cy="937.08" r="17.097" style="fill:rgb(4,128,252);"/>
                            </g>
                            <g transform="matrix(0.0572117,0,0,0.0598587,-1033.52,1542.7)">
                                <circle cx="-1197.82" cy="937.08" r="17.097" style="fill:rgb(4,128,252);"/>
                            </g>
                            <g transform="matrix(0.0572117,0,0,0.0598587,-1082.33,1645.04)">
                                <circle cx="-1197.82" cy="937.08" r="17.097" style="fill:rgb(4,128,252);"/>
                            </g>
                            <g transform="matrix(0.0572117,0,0,0.0598587,-1033.52,1747.38)">
                                <circle cx="-1197.82" cy="937.08" r="17.097" style="fill:rgb(4,128,252);"/>
                            </g>
                            <g transform="matrix(0.0572117,0,0,0.0598587,-1082.33,1849.72)">
                                <circle cx="-1197.82" cy="937.08" r="17.097" style="fill:rgb(4,128,252);"/>
                            </g>
                            <g transform="matrix(0.0572117,0,0,0.0598587,-984.517,826.298)">
                                <circle cx="-1197.82" cy="937.08" r="17.097" style="fill:rgb(4,128,252);"/>
                            </g>
                            <g transform="matrix(0.0572117,0,0,0.0598587,-935.707,928.64)">
                                <circle cx="-1197.82" cy="937.08" r="17.097" style="fill:rgb(4,128,252);"/>
                            </g>
                            <g transform="matrix(0.0572117,0,0,0.0598587,-984.517,1030.98)">
                                <circle cx="-1197.82" cy="937.08" r="17.097" style="fill:rgb(4,128,252);"/>
                            </g>
                            <g transform="matrix(0.0572117,0,0,0.0598587,-935.707,1133.33)">
                                <circle cx="-1197.82" cy="937.08" r="17.097" style="fill:rgb(4,128,252);"/>
                            </g>
                            <g transform="matrix(0.0572117,0,0,0.0598587,-984.517,1235.67)">
                                <circle cx="-1197.82" cy="937.08" r="17.097" style="fill:rgb(4,128,252);"/>
                            </g>
                            <g transform="matrix(0.0572117,0,0,0.0598587,-935.707,1338.01)">
                                <circle cx="-1197.82" cy="937.08" r="17.097" style="fill:rgb(4,128,252);"/>
                            </g>
                            <g transform="matrix(0.0572117,0,0,0.0598587,-984.517,1440.35)">
                                <circle cx="-1197.82" cy="937.08" r="17.097" style="fill:rgb(4,128,252);"/>
                            </g>
                            <g transform="matrix(0.0572117,0,0,0.0598587,-935.707,1542.7)">
                                <circle cx="-1197.82" cy="937.08" r="17.097" style="fill:rgb(4,128,252);"/>
                            </g>
                            <g transform="matrix(0.0572117,0,0,0.0598587,-984.517,1645.04)">
                                <circle cx="-1197.82" cy="937.08" r="17.097" style="fill:rgb(4,128,252);"/>
                            </g>
                            <g transform="matrix(0.0572117,0,0,0.0598587,-935.707,1747.38)">
                                <circle cx="-1197.82" cy="937.08" r="17.097" style="fill:rgb(4,128,252);"/>
                            </g>
                            <g transform="matrix(0.0572117,0,0,0.0598587,-984.517,1849.72)">
                                <circle cx="-1197.82" cy="937.08" r="17.097" style="fill:rgb(4,128,252);"/>
                            </g>
                            <g transform="matrix(0.0572117,0,0,0.0598587,-886.7,826.298)">
                                <circle cx="-1197.82" cy="937.08" r="17.097" style="fill:rgb(4,128,252);"/>
                            </g>
                            <g transform="matrix(0.0572117,0,0,0.0598587,-1913.78,928.64)">
                                <circle cx="-1197.82" cy="937.08" r="17.097" style="fill:rgb(4,128,252);"/>
                            </g>
                            <g transform="matrix(0.0572117,0,0,0.0598587,-886.7,1030.98)">
                                <circle cx="-1197.82" cy="937.08" r="17.097" style="fill:rgb(4,128,252);"/>
                            </g>
                            <g transform="matrix(0.0572117,0,0,0.0598587,-1913.78,1133.33)">
                                <circle cx="-1197.82" cy="937.08" r="17.097" style="fill:rgb(4,128,252);"/>
                            </g>
                            <g transform="matrix(0.0572117,0,0,0.0598587,-886.7,1235.67)">
                                <circle cx="-1197.82" cy="937.08" r="17.097" style="fill:rgb(4,128,252);"/>
                            </g>
                            <g transform="matrix(0.0572117,0,0,0.0598587,-1913.78,1338.01)">
                                <circle cx="-1197.82" cy="937.08" r="17.097" style="fill:rgb(4,128,252);"/>
                            </g>
                            <g transform="matrix(0.0572117,0,0,0.0598587,-886.7,1440.35)">
                                <circle cx="-1197.82" cy="937.08" r="17.097" style="fill:rgb(4,128,252);"/>
                            </g>
                            <g transform="matrix(0.0572117,0,0,0.0598587,-1913.78,1542.7)">
                                <circle cx="-1197.82" cy="937.08" r="17.097" style="fill:rgb(4,128,252);"/>
                            </g>
                            <g transform="matrix(0.0572117,0,0,0.0598587,-886.7,1645.04)">
                                <circle cx="-1197.82" cy="937.08" r="17.097" style="fill:rgb(4,128,252);"/>
                            </g>
                            <g transform="matrix(0.0572117,0,0,0.0598587,-1913.78,1747.38)">
                                <circle cx="-1197.82" cy="937.08" r="17.097" style="fill:rgb(4,128,252);"/>
                            </g>
                            <g transform="matrix(0.0572117,0,0,0.0598587,-886.7,1849.72)">
                                <circle cx="-1197.82" cy="937.08" r="17.097" style="fill:rgb(4,128,252);"/>
                            </g>
                        </g>
                    </g>
                </g>
                <g transform="matrix(0.223259,0,0,0.223259,1043.52,60.8548)">
                    <circle cx="1791.02" cy="1255.38" r="111.51" style="fill:url(#_Radial10);"/>
                </g>
            </g>
        </g>
    </g>
    <defs>
        <linearGradient id="_Linear3" x1="0" y1="0" x2="1" y2="0" gradientUnits="userSpaceOnUse" gradientTransform="matrix(3.06162e-14,500,-500,3.06162e-14,1500,1500)"><stop offset="0" style="stop-color:rgb(37,37,37);stop-opacity:1"/><stop offset="1" style="stop-color:black;stop-opacity:1"/></linearGradient>
        <linearGradient id="_Linear4" x1="0" y1="0" x2="1" y2="0" gradientUnits="userSpaceOnUse" gradientTransform="matrix(2.7358e-14,626.247,-626.247,5.37488e-14,1500,1500)"><stop offset="0" style="stop-color:white;stop-opacity:1"/><stop offset="1" style="stop-color:rgb(217,217,217);stop-opacity:1"/></linearGradient>
        <linearGradient id="_Linear5" x1="0" y1="0" x2="1" y2="0" gradientUnits="userSpaceOnUse" gradientTransform="matrix(2.39083e-14,547.281,-547.281,4.69714e-14,1500,1500)"><stop offset="0" style="stop-color:white;stop-opacity:1"/><stop offset="1" style="stop-color:rgb(217,217,217);stop-opacity:1"/></linearGradient>
        <linearGradient id="_Linear6" x1="0" y1="0" x2="1" y2="0" gradientUnits="userSpaceOnUse" gradientTransform="matrix(2.42625e-14,555.389,-555.389,4.76674e-14,1500,1500)"><stop offset="0" style="stop-color:white;stop-opacity:1"/><stop offset="1" style="stop-color:rgb(217,217,217);stop-opacity:1"/></linearGradient>
        <linearGradient id="_Linear7" x1="0" y1="0" x2="1" y2="0" gradientUnits="userSpaceOnUse" gradientTransform="matrix(3.06162e-14,500,-500,3.06162e-14,1500,1500)"><stop offset="0" style="stop-color:white;stop-opacity:1"/><stop offset="1" style="stop-color:rgb(217,217,217);stop-opacity:1"/></linearGradient>
        <linearGradient id="_Linear8" x1="0" y1="0" x2="1" y2="0" gradientUnits="userSpaceOnUse" gradientTransform="matrix(8.74779e-14,-538.335,384.07,6.29363e-14,1500,1940.01)"><stop offset="0" style="stop-color:rgb(230,230,230);stop-opacity:1"/><stop offset="1" style="stop-color:white;stop-opacity:1"/></linearGradient>
        <radialGradient id="_Radial10" cx="0" cy="0" r="1" gradientUnits="userSpaceOnUse" gradientTransform="matrix(126.139,94.0415,-94.0415,126.139,1750.06,1225.2)"><stop offset="0" style="stop-color:rgb(215,153,168);stop-opacity:1"/><stop offset="1" style="stop-color:rgb(236,25,75);stop-opacity:1"/></radialGradient>
    </defs>
</svg>
