<?xml version="1.0" encoding="UTF-8" standalone="no"?><!DOCTYPE svg PUBLIC "-//W3C//DTD SVG 1.1//EN" "http://www.w3.org/Graphics/SVG/1.1/DTD/svg11.dtd"><svg width="100%" height="100%" viewBox="0 0 1000 1000" version="1.1" xmlns="http://www.w3.org/2000/svg" xmlns:xlink="http://www.w3.org/1999/xlink" xml:space="preserve" xmlns:serif="http://www.serif.com/" style="fill-rule:evenodd;clip-rule:evenodd;stroke-linejoin:round;stroke-miterlimit:2;"><rect id="left" x="0.972" y="0.77" width="1000" height="1000" style="fill:#e6e6e6;"/><clipPath id="_clip1"><rect x="0.972" y="0.77" width="1000" height="1000"/></clipPath><g clip-path="url(#_clip1)"><g><rect x="0.073" y="0.77" width="1001.5" height="1000" style="fill:#e6e6e6;"/><clipPath id="_clip2"><rect x="0.073" y="0.77" width="1001.5" height="1000"/></clipPath><g clip-path="url(#_clip2)"><g><path d="M1001.57,549.71c-611.298,-139.205 -673.421,70.09 -1001.5,0l0,307.26l1001.5,0l0,-307.26Z" style="fill:url(#_Linear3);"/></g><path d="M1001.57,94.483c-516.336,-135.68 -575.702,465.273 -1009.39,-8.713l7.888,315.973l1001.5,0l0,-307.26Z" style="fill:url(#_Linear4);"/><path d="M1012.33,226.08c-499.256,-131.192 -601.407,360.418 -1020.17,-9.687l7.915,314.023l1001.5,0l10.756,-304.336Z" style="fill:url(#_Linear5);"/><path d="M1006.09,352.827c-517.05,-135.868 -551.496,265.605 -1012.4,-4.953l6.388,311.214l1001.5,0l4.514,-306.261Z" style="fill:url(#_Linear6);"/><path d="M1011.79,510.315c-519.236,-175.656 -536.992,162.66 -1020.16,-6.763l8.45,310.386l1001.5,0l10.214,-303.623Z" style="fill:url(#_Linear7);"/><path d="M1005.92,696.237c-439.882,-254.198 -530.331,76.304 -1006.27,-3.362l0.425,307.895l1001.5,0l4.344,-304.533Z" style="fill:url(#_Linear8);"/></g><rect x="0.073" y="0.77" width="1001.5" height="1000" style="fill:none;"/><clipPath id="_clip9"><rect x="0.073" y="0.77" width="1001.5" height="1000"/></clipPath><g clip-path="url(#_clip9)"><ellipse cx="45.596" cy="46.224" rx="0.91" ry="0.909" style="fill:#0480fc;"/><ellipse cx="91.027" cy="137.133" rx="0.91" ry="0.909" style="fill:#0480fc;"/><ellipse cx="45.596" cy="228.042" rx="0.91" ry="0.909" style="fill:#0480fc;"/><ellipse cx="91.027" cy="318.951" rx="0.91" ry="0.909" style="fill:#0480fc;"/><ellipse cx="45.596" cy="409.86" rx="0.91" ry="0.909" style="fill:#0480fc;"/><ellipse cx="91.027" cy="500.77" rx="0.91" ry="0.909" style="fill:#0480fc;"/><ellipse cx="45.596" cy="591.679" rx="0.91" ry="0.909" style="fill:#0480fc;"/><ellipse cx="91.027" cy="682.588" rx="0.91" ry="0.909" style="fill:#0480fc;"/><ellipse cx="45.596" cy="773.497" rx="0.91" ry="0.909" style="fill:#0480fc;"/><ellipse cx="91.027" cy="864.406" rx="0.91" ry="0.909" style="fill:#0480fc;"/><ellipse cx="45.596" cy="955.315" rx="0.91" ry="0.909" style="fill:#0480fc;"/><ellipse cx="136.641" cy="46.224" rx="0.91" ry="0.909" style="fill:#0480fc;"/><ellipse cx="182.073" cy="137.133" rx="0.91" ry="0.909" style="fill:#0480fc;"/><ellipse cx="136.641" cy="228.042" rx="0.91" ry="0.909" style="fill:#0480fc;"/><ellipse cx="182.073" cy="318.951" rx="0.91" ry="0.909" style="fill:#0480fc;"/><ellipse cx="136.641" cy="409.86" rx="0.91" ry="0.909" style="fill:#0480fc;"/><ellipse cx="182.073" cy="500.77" rx="0.91" ry="0.909" style="fill:#0480fc;"/><ellipse cx="136.641" cy="591.679" rx="0.91" ry="0.909" style="fill:#0480fc;"/><ellipse cx="182.073" cy="682.588" rx="0.91" ry="0.909" style="fill:#0480fc;"/><ellipse cx="136.641" cy="773.497" rx="0.91" ry="0.909" style="fill:#0480fc;"/><ellipse cx="182.073" cy="864.406" rx="0.91" ry="0.909" style="fill:#0480fc;"/><ellipse cx="136.641" cy="955.315" rx="0.91" ry="0.909" style="fill:#0480fc;"/><ellipse cx="227.687" cy="46.224" rx="0.91" ry="0.909" style="fill:#0480fc;"/><ellipse cx="273.118" cy="137.133" rx="0.91" ry="0.909" style="fill:#0480fc;"/><ellipse cx="227.687" cy="228.042" rx="0.91" ry="0.909" style="fill:#0480fc;"/><ellipse cx="273.118" cy="318.951" rx="0.91" ry="0.909" style="fill:#0480fc;"/><ellipse cx="227.687" cy="409.86" rx="0.91" ry="0.909" style="fill:#0480fc;"/><ellipse cx="273.118" cy="500.77" rx="0.91" ry="0.909" style="fill:#0480fc;"/><ellipse cx="227.687" cy="591.679" rx="0.91" ry="0.909" style="fill:#0480fc;"/><ellipse cx="273.118" cy="682.588" rx="0.91" ry="0.909" style="fill:#0480fc;"/><ellipse cx="227.687" cy="773.497" rx="0.91" ry="0.909" style="fill:#0480fc;"/><ellipse cx="273.118" cy="864.406" rx="0.91" ry="0.909" style="fill:#0480fc;"/><ellipse cx="227.687" cy="955.315" rx="0.91" ry="0.909" style="fill:#0480fc;"/><ellipse cx="318.732" cy="46.224" rx="0.91" ry="0.909" style="fill:#0480fc;"/><ellipse cx="364.164" cy="137.133" rx="0.91" ry="0.909" style="fill:#0480fc;"/><ellipse cx="318.732" cy="228.042" rx="0.91" ry="0.909" style="fill:#0480fc;"/><ellipse cx="364.164" cy="318.951" rx="0.91" ry="0.909" style="fill:#0480fc;"/><ellipse cx="318.732" cy="409.86" rx="0.91" ry="0.909" style="fill:#0480fc;"/><ellipse cx="364.164" cy="500.77" rx="0.91" ry="0.909" style="fill:#0480fc;"/><ellipse cx="318.732" cy="591.679" rx="0.91" ry="0.909" style="fill:#0480fc;"/><ellipse cx="364.164" cy="682.588" rx="0.91" ry="0.909" style="fill:#0480fc;"/><ellipse cx="318.732" cy="773.497" rx="0.91" ry="0.909" style="fill:#0480fc;"/><ellipse cx="364.164" cy="864.406" rx="0.91" ry="0.909" style="fill:#0480fc;"/><ellipse cx="318.732" cy="955.315" rx="0.91" ry="0.909" style="fill:#0480fc;"/><ellipse cx="409.778" cy="46.224" rx="0.91" ry="0.909" style="fill:#0480fc;"/><ellipse cx="455.209" cy="137.133" rx="0.91" ry="0.909" style="fill:#0480fc;"/><ellipse cx="409.778" cy="228.042" rx="0.91" ry="0.909" style="fill:#0480fc;"/><ellipse cx="455.209" cy="318.951" rx="0.91" ry="0.909" style="fill:#0480fc;"/><ellipse cx="409.778" cy="409.86" rx="0.91" ry="0.909" style="fill:#0480fc;"/><ellipse cx="455.209" cy="500.77" rx="0.91" ry="0.909" style="fill:#0480fc;"/><ellipse cx="409.778" cy="591.679" rx="0.91" ry="0.909" style="fill:#0480fc;"/><ellipse cx="455.209" cy="682.588" rx="0.91" ry="0.909" style="fill:#0480fc;"/><ellipse cx="409.778" cy="773.497" rx="0.91" ry="0.909" style="fill:#0480fc;"/><ellipse cx="455.209" cy="864.406" rx="0.91" ry="0.909" style="fill:#0480fc;"/><ellipse cx="409.778" cy="955.315" rx="0.91" ry="0.909" style="fill:#0480fc;"/><ellipse cx="500.823" cy="46.224" rx="0.91" ry="0.909" style="fill:#0480fc;"/><ellipse cx="546.255" cy="137.133" rx="0.91" ry="0.909" style="fill:#0480fc;"/><ellipse cx="500.823" cy="228.042" rx="0.91" ry="0.909" style="fill:#0480fc;"/><ellipse cx="546.255" cy="318.951" rx="0.91" ry="0.909" style="fill:#0480fc;"/><ellipse cx="500.823" cy="409.86" rx="0.91" ry="0.909" style="fill:#0480fc;"/><ellipse cx="546.255" cy="500.77" rx="0.91" ry="0.909" style="fill:#0480fc;"/><ellipse cx="500.823" cy="591.679" rx="0.91" ry="0.909" style="fill:#0480fc;"/><ellipse cx="546.255" cy="682.588" rx="0.91" ry="0.909" style="fill:#0480fc;"/><ellipse cx="500.823" cy="773.497" rx="0.91" ry="0.909" style="fill:#0480fc;"/><ellipse cx="546.255" cy="864.406" rx="0.91" ry="0.909" style="fill:#0480fc;"/><ellipse cx="500.823" cy="955.315" rx="0.91" ry="0.909" style="fill:#0480fc;"/><ellipse cx="591.869" cy="46.224" rx="0.91" ry="0.909" style="fill:#0480fc;"/><ellipse cx="637.3" cy="137.133" rx="0.91" ry="0.909" style="fill:#0480fc;"/><ellipse cx="591.869" cy="228.042" rx="0.91" ry="0.909" style="fill:#0480fc;"/><ellipse cx="637.3" cy="318.951" rx="0.91" ry="0.909" style="fill:#0480fc;"/><ellipse cx="591.869" cy="409.86" rx="0.91" ry="0.909" style="fill:#0480fc;"/><ellipse cx="637.3" cy="500.77" rx="0.91" ry="0.909" style="fill:#0480fc;"/><ellipse cx="591.869" cy="591.679" rx="0.91" ry="0.909" style="fill:#0480fc;"/><ellipse cx="637.3" cy="682.588" rx="0.91" ry="0.909" style="fill:#0480fc;"/><ellipse cx="591.869" cy="773.497" rx="0.91" ry="0.909" style="fill:#0480fc;"/><ellipse cx="637.3" cy="864.406" rx="0.91" ry="0.909" style="fill:#0480fc;"/><ellipse cx="591.869" cy="955.315" rx="0.91" ry="0.909" style="fill:#0480fc;"/><ellipse cx="682.914" cy="46.224" rx="0.91" ry="0.909" style="fill:#0480fc;"/><ellipse cx="728.346" cy="137.133" rx="0.91" ry="0.909" style="fill:#0480fc;"/><ellipse cx="682.914" cy="228.042" rx="0.91" ry="0.909" style="fill:#0480fc;"/><ellipse cx="728.346" cy="318.951" rx="0.91" ry="0.909" style="fill:#0480fc;"/><ellipse cx="682.914" cy="409.86" rx="0.91" ry="0.909" style="fill:#0480fc;"/><ellipse cx="728.346" cy="500.77" rx="0.91" ry="0.909" style="fill:#0480fc;"/><ellipse cx="682.914" cy="591.679" rx="0.91" ry="0.909" style="fill:#0480fc;"/><ellipse cx="728.346" cy="682.588" rx="0.91" ry="0.909" style="fill:#0480fc;"/><ellipse cx="682.914" cy="773.497" rx="0.91" ry="0.909" style="fill:#0480fc;"/><ellipse cx="728.346" cy="864.406" rx="0.91" ry="0.909" style="fill:#0480fc;"/><ellipse cx="682.914" cy="955.315" rx="0.91" ry="0.909" style="fill:#0480fc;"/><ellipse cx="773.96" cy="46.224" rx="0.91" ry="0.909" style="fill:#0480fc;"/><ellipse cx="819.391" cy="137.133" rx="0.91" ry="0.909" style="fill:#0480fc;"/><ellipse cx="773.96" cy="228.042" rx="0.91" ry="0.909" style="fill:#0480fc;"/><ellipse cx="819.391" cy="318.951" rx="0.91" ry="0.909" style="fill:#0480fc;"/><ellipse cx="773.96" cy="409.86" rx="0.91" ry="0.909" style="fill:#0480fc;"/><ellipse cx="819.391" cy="500.77" rx="0.91" ry="0.909" style="fill:#0480fc;"/><ellipse cx="773.96" cy="591.679" rx="0.91" ry="0.909" style="fill:#0480fc;"/><ellipse cx="819.391" cy="682.588" rx="0.91" ry="0.909" style="fill:#0480fc;"/><ellipse cx="773.96" cy="773.497" rx="0.91" ry="0.909" style="fill:#0480fc;"/><ellipse cx="819.391" cy="864.406" rx="0.91" ry="0.909" style="fill:#0480fc;"/><ellipse cx="773.96" cy="955.315" rx="0.91" ry="0.909" style="fill:#0480fc;"/><ellipse cx="865.005" cy="46.224" rx="0.91" ry="0.909" style="fill:#0480fc;"/><ellipse cx="910.437" cy="137.133" rx="0.91" ry="0.909" style="fill:#0480fc;"/><ellipse cx="865.005" cy="228.042" rx="0.91" ry="0.909" style="fill:#0480fc;"/><ellipse cx="910.437" cy="318.951" rx="0.91" ry="0.909" style="fill:#0480fc;"/><ellipse cx="865.005" cy="409.86" rx="0.91" ry="0.909" style="fill:#0480fc;"/><ellipse cx="910.437" cy="500.77" rx="0.91" ry="0.909" style="fill:#0480fc;"/><ellipse cx="865.005" cy="591.679" rx="0.91" ry="0.909" style="fill:#0480fc;"/><ellipse cx="910.437" cy="682.588" rx="0.91" ry="0.909" style="fill:#0480fc;"/><ellipse cx="865.005" cy="773.497" rx="0.91" ry="0.909" style="fill:#0480fc;"/><ellipse cx="910.437" cy="864.406" rx="0.91" ry="0.909" style="fill:#0480fc;"/><ellipse cx="865.005" cy="955.315" rx="0.91" ry="0.909" style="fill:#0480fc;"/><ellipse cx="956.051" cy="46.224" rx="0.91" ry="0.909" style="fill:#0480fc;"/><ellipse cx="1001.48" cy="137.133" rx="0.91" ry="0.909" style="fill:#0480fc;"/><ellipse cx="0.073" cy="137.133" rx="0.91" ry="0.909" style="fill:#0480fc;"/><ellipse cx="956.051" cy="228.042" rx="0.91" ry="0.909" style="fill:#0480fc;"/><ellipse cx="1001.48" cy="318.951" rx="0.91" ry="0.909" style="fill:#0480fc;"/><ellipse cx="0.073" cy="318.951" rx="0.91" ry="0.909" style="fill:#0480fc;"/><ellipse cx="956.051" cy="409.86" rx="0.91" ry="0.909" style="fill:#0480fc;"/><ellipse cx="1001.48" cy="500.77" rx="0.91" ry="0.909" style="fill:#0480fc;"/><ellipse cx="0.073" cy="500.77" rx="0.91" ry="0.909" style="fill:#0480fc;"/><ellipse cx="956.051" cy="591.679" rx="0.91" ry="0.909" style="fill:#0480fc;"/><ellipse cx="1001.48" cy="682.588" rx="0.91" ry="0.909" style="fill:#0480fc;"/><ellipse cx="0.073" cy="682.588" rx="0.91" ry="0.909" style="fill:#0480fc;"/><ellipse cx="956.051" cy="773.497" rx="0.91" ry="0.909" style="fill:#0480fc;"/><ellipse cx="1001.48" cy="864.406" rx="0.91" ry="0.909" style="fill:#0480fc;"/><ellipse cx="0.073" cy="864.406" rx="0.91" ry="0.909" style="fill:#0480fc;"/><ellipse cx="956.051" cy="955.315" rx="0.91" ry="0.909" style="fill:#0480fc;"/></g></g></g><defs><linearGradient id="_Linear3" x1="0" y1="0" x2="1" y2="0" gradientUnits="userSpaceOnUse" gradientTransform="matrix(9.0157e-14,356.72,-500.75,4.96812e-14,500.823,500.251)"><stop offset="0" style="stop-color:#252525;stop-opacity:1"/><stop offset="1" style="stop-color:#000;stop-opacity:1"/></linearGradient><linearGradient id="_Linear4" x1="0" y1="0" x2="1" y2="0" gradientUnits="userSpaceOnUse" gradientTransform="matrix(1.01916e-13,446.789,-627.186,7.3214e-14,500.823,45.0234)"><stop offset="0" style="stop-color:#fff;stop-opacity:1"/><stop offset="1" style="stop-color:#d9d9d9;stop-opacity:1"/></linearGradient><linearGradient id="_Linear5" x1="0" y1="0" x2="1" y2="0" gradientUnits="userSpaceOnUse" gradientTransform="matrix(8.9065e-14,390.452,-548.102,6.39821e-14,500.823,173.696)"><stop offset="0" style="stop-color:#fff;stop-opacity:1"/><stop offset="1" style="stop-color:#d9d9d9;stop-opacity:1"/></linearGradient><linearGradient id="_Linear6" x1="0" y1="0" x2="1" y2="0" gradientUnits="userSpaceOnUse" gradientTransform="matrix(9.03846e-14,396.237,-556.223,6.49301e-14,500.823,302.368)"><stop offset="0" style="stop-color:#fff;stop-opacity:1"/><stop offset="1" style="stop-color:#d9d9d9;stop-opacity:1"/></linearGradient><linearGradient id="_Linear7" x1="0" y1="0" x2="1" y2="0" gradientUnits="userSpaceOnUse" gradientTransform="matrix(9.0157e-14,356.72,-500.75,4.96812e-14,500.823,457.218)"><stop offset="0" style="stop-color:#fff;stop-opacity:1"/><stop offset="1" style="stop-color:#d9d9d9;stop-opacity:1"/></linearGradient><linearGradient id="_Linear8" x1="0" y1="0" x2="1" y2="0" gradientUnits="userSpaceOnUse" gradientTransform="matrix(2.35528e-14,-384.07,384.646,2.35175e-14,500.823,957.969)"><stop offset="0" style="stop-color:#e6e6e6;stop-opacity:1"/><stop offset="1" style="stop-color:#fff;stop-opacity:1"/></linearGradient></defs></svg>